<svg xmlns="http://www.w3.org/2000/svg" viewBox="0 0 5046 3387" width="5046" height="3387">
	<defs>
		<clipPath clipPathUnits="userSpaceOnUse" id="cp1">
			<path d="M-2246 -449L5254 -449L5254 3720L-2246 3720Z" />
		</clipPath>
	</defs>
	<style>
		tspan { white-space:pre }
		.shp0 { fill: #fdd089 } 
		.shp1 { fill: #96d9c9 } 
		.shp2 { fill: #3c8f7c } 
		.shp3 { fill: #50bfa5 } 
		.shp4 { fill: #184655 } 
		.shp5 { fill: #86b1f2 } 
		.shp6 { fill: #fae0b2 } 
		.shp7 { fill: #355389 } 
		.shp8 { fill: #466eb6 } 
		.shp9 { fill: #ff4c16 } 
		.shp10 { fill: #f47458 } 
		.shp11 { fill: #b75742 } 
		.shp12 { fill: #13375b } 
		.shp13 { fill: #f7a491 } 
		.shp14 { fill: #9bc1f9 } 
		.shp15 { fill: #f7cc7f } 
		.shp16 { fill: #f48c7f } 
		.shp17 { fill: #07345a } 
		.shp18 { fill: #ffffff } 
	</style>
	<g id="Page 1" clip-path="url(#cp1)">
		<path id="Path 14" class="shp0" d="M5045.67 1569.56C5045.67 1784.19 4881.44 1958.17 4678.85 1958.17C4476.25 1958.17 4312.02 1784.19 4312.02 1569.56C4312.02 1354.94 4476.25 1180.95 4678.85 1180.95C4881.44 1180.95 5045.67 1354.94 5045.67 1569.56ZM4774.69 2223.79C4774.69 2866.15 4229.1 3386.85 3556.08 3386.85C2883.06 3386.85 2337.48 2866.15 2337.48 2223.79C2337.48 1581.47 2883.06 1060.75 3556.08 1060.75C4229.1 1060.75 4774.69 1581.47 4774.69 2223.79Z" />
		<path id="Path 15" class="shp1" d="M2981.08 1027.77L3041.73 969.08C3022.77 862.96 2923.21 811.89 2857.65 804.93C2681.1 786.2 2591.12 907.57 2553.25 1102.24C2484.12 1457.55 2571.17 2949.5 2571.17 2949.5C2577.67 2909.87 3057.15 1411.62 3044.85 999.98L2981.08 1027.77Z" />
		<path id="Path 16" class="shp2" d="M567.9 2199.35L560.38 2255.02L542.35 2190.63C491.73 2174.69 447.75 2169.21 412.9 2177.15C101.4 2247.94 639.67 2676.33 639.67 2676.33C639.67 2676.33 468.12 2568.62 301.98 2500.44L299.87 2556.85L278.62 2493.1C149.52 2442.56 29.75 2419.21 5.81 2492.17C-16.71 2560.87 28.62 2625.9 106.65 2683.79L196.33 2686.94L143.48 2709.1C323.65 2824.52 621.73 2907.08 724.62 2925.85C626.19 2910.4 385.58 2879.08 242.98 2909.87L265.35 2947.1L209.04 2918.94C159.15 2935.04 128.15 2961.71 131.48 3003.67C137.85 3083.92 486.04 3112.81 486.04 3112.81L1758 3101.02L1765.06 3104.54C1765.06 3104.54 977.96 2349.56 567.9 2199.35Z" />
		<path id="Path 17" class="shp3" d="M4557.92 2941.73C4533.4 2827.81 4284.29 2794.33 3966.79 2856.77C4079.85 2818.12 4235.17 2730.21 4315.6 2690.02L4260.58 2655L4371.1 2660.15C4461.48 2607.23 4506.67 2555.25 4477.15 2508.25C4455.08 2473.12 4406.71 2458.52 4341.15 2458.69L4306.6 2520.5L4313.77 2459.56C4148.37 2469.1 4110.85 2442.1 3887.73 2532.29C4027.17 2459.92 4047.31 2437.46 4056.46 2408.4L3980.96 2375.37L4069.44 2375.37C4140.96 2298.42 4254.44 2146.19 4207.37 2076.04C4168.54 2018.15 3998.02 2098.5 3889.19 2140.25L3842.9 2244.4L3852.27 2155.42C3506.23 2306.15 3623.52 2185.21 3623.52 2185.21C3623.52 2185.21 3984.75 1437.95 3771.94 1454.75C3687.94 1461.38 3597.58 1512.01 3508.88 1593.14L3506.62 1667.42L3480.23 1620.28C3415.6 1683.62 3351.6 1760.35 3290.52 1842.71C3373.35 1668.75 3436.17 1497.88 3442.42 1370.66L3379.19 1363L3441.58 1319.6C3435.71 1255.32 3410.25 1206.71 3358.67 1181.01C3279.56 1141.6 3196.52 1201.24 3114.77 1319.75L3134.96 1426.71L3084.23 1366.78C2791.52 1843.85 2523.85 3018.4 2523.85 3018.4L2502.63 3082.1L3362.6 3124.56C3362.6 3124.56 4607.48 3171.81 4557.92 2941.73Z" />
		<path id="Path 18" class="shp4" d="M4978.08 3130.21L56.6 3130.21C48.42 3130.21 41.79 3123.83 41.79 3115.96C41.79 3108.1 48.42 3101.71 56.6 3101.71L4978.08 3101.71C4986.25 3101.71 4992.9 3108.1 4992.9 3115.96C4992.9 3123.83 4986.25 3130.21 4978.08 3130.21Z" />
		<path id="Path 19" class="shp5" d="M3293.23 2624.17L1276.25 2624.17C1199.21 2624.17 1136.77 2567.5 1136.77 2497.6L1136.77 2422.35C1136.77 2352.46 1199.21 2295.81 1276.25 2295.81L3293.23 2295.81C3200.96 2387.29 3199.37 2527.12 3289.52 2620.33L3293.23 2624.17Z" />
		<path id="Path 20" class="shp6" d="M3264.98 2333.42L2250 2333.42C2180.1 2333.42 2123.44 2390.08 2123.44 2459.98C2123.44 2529.87 2180.1 2586.54 2250 2586.54L3265.06 2586.54C3217.62 2508.9 3217.73 2410.85 3264.98 2333.42Z" />
		<path id="Path 21" class="shp7" d="M3202.4 1936.83C3206.83 1929.25 3200.1 1920.46 3189.9 1920.46L1583.6 1920.46C1457.71 1920.46 1355.65 2004.69 1355.65 2108.58C1355.65 2212.48 1457.71 2296.71 1583.6 2296.71L3190.35 2296.71C3200.6 2296.71 3207.33 2287.87 3202.87 2280.25C3139.25 2171.5 3139.42 2045.1 3202.4 1936.83Z" />
		<path id="Path 22" class="shp6" d="M3189.6 1960.94L2111.87 1960.94C2032.25 1960.94 1967.73 2025.48 1967.73 2105.08L1967.73 2115.92C1967.73 2195.52 2032.25 2260.06 2111.87 2260.06L3191.9 2260.06C3143.6 2164.21 3143.08 2056.77 3189.6 1960.94ZM1247.52 1903.75L2284.15 1903.75C2376.08 1903.75 2450.6 1823.4 2450.6 1724.25C2450.6 1625.13 2376.08 1544.77 2284.15 1544.77L1247.52 1544.77C1326.75 1644.27 1329.85 1790.25 1254.92 1893.54L1247.52 1903.75Z" />
		<path id="Path 23" class="shp8" d="M2436.94 1724.25C2436.94 1625.13 2361.56 1544.77 2268.58 1544.77L1228.67 1544.77C1223.81 1544.77 1219.9 1540.55 1219.94 1535.38C1220 1530.28 1223.88 1526.17 1228.67 1526.17L2878.35 1526.17C2980.96 1526.17 3064.17 1614.86 3064.17 1724.25C3064.17 1833.67 2980.96 1922.35 2878.35 1922.35L1228.67 1922.35C1223.9 1922.35 1220 1918.23 1219.96 1913.12C1219.92 1907.96 1223.83 1903.75 1228.67 1903.75L2268.58 1903.75C2361.56 1903.75 2436.94 1823.4 2436.94 1724.25Z" />
		<path id="Path 24" class="shp9" d="M2510.42 2111.69L2399.48 2111.69C2375.62 2111.69 2356.29 2119.08 2356.29 2128.21L2356.29 2129.69L2510.42 2129.69L2510.42 2111.69Z" />
		<path id="Path 25" class="shp10" d="M2605.04 2153.12C2605.04 2130.23 2576.08 2111.69 2540.33 2111.69L2397.98 2111.69C2425.08 2111.69 2447.06 2125.75 2447.06 2143.12L2446.38 2587.35L2525.04 2530.21L2605.21 2587.35L2605.04 2153.12Z" />
		<path id="Path 26" class="shp11" d="M4122.54 2623.5L1125.52 2623.5C1032.46 2623.5 957.02 2698.94 957.02 2792L957.02 2933.75C957.02 3026.81 1032.46 3102.25 1125.52 3102.25L4122.54 3102.25L4120.98 3100.62C3992.75 2967.19 3993.46 2756.1 4122.54 2623.5Z" />
		<path id="Path 27" class="shp6" d="M4069.48 2694.35L2467.33 2694.35C2374.27 2694.35 2298.81 2769.81 2298.81 2862.87C2298.81 2955.94 2374.27 3031.4 2467.33 3031.4L4069.46 3031.4C4010.56 2927.04 4010.65 2798.62 4069.48 2694.35Z" />
		<path id="Path 28" class="shp12" d="M3282.83 2863.75L3152.9 2863.75C3124.96 2863.75 3102.31 2886.4 3102.31 2914.33L3102.31 2918.87L3282.83 2918.87L3282.83 2863.75Z" />
		<path id="Path 29" class="shp7" d="M3158.21 2863.94C3189.27 2863.92 3235.65 2890.21 3261.81 2922.65L3569.98 3304.85L3750.98 3304.73L3457.9 2941.25C3423.42 2898.48 3362.25 2863.81 3321.31 2863.85L3158.21 2863.94Z" />
		<path id="Path 30" class="shp11" d="M446.19 3060.31L509.35 3045.56C509.35 3045.56 560.56 3048.79 608.35 3039.1C608.35 3039.1 613.17 3051.79 615.25 3078C615.6 3082.52 609.1 3105.04 604.63 3105.73C588.37 3108.23 559.77 3105.4 509 3106.56C509 3106.56 429.1 3116 386.33 3101.9C343.58 3087.79 446.19 3060.31 446.19 3060.31Z" />
		<path id="Path 31" class="shp4" d="M1143.9 2026.65C1147.4 2063.29 1178.17 2076.21 1206.85 2099.42C1226.1 2114.98 1222.79 2157.04 1208.08 2183.17C1170.79 2249.33 1202.56 2257.5 1232.6 2306.1C1304.96 2423.15 1080.73 2449.02 1054.1 2457.73C1027.5 2466.46 1009.46 2477.02 993.71 2475.27C946.27 2470.02 902.87 2402.58 878.79 2340.21C854.69 2277.83 913.17 2274.54 916.17 2238.73C919.15 2202.9 850.71 2195.21 871 2127.54C892.96 2054.35 923.94 1992.31 965.08 1970.06C1033.17 1933.25 1115.96 1971.75 1134.77 2001.33C1140.37 2010.15 1143.13 2018.65 1143.9 2026.65Z" />
		<path id="Path 32" class="shp6" d="M1149.17 2827.94C1155.06 2842.6 1187.5 2894.52 1187.5 2894.52L732.12 2899.06L725.04 2805.65C850.06 2804.62 973.65 2749.35 1088.83 2709.79C1091.75 2716.85 1146.31 2820.83 1149.17 2827.94Z" />
		<path id="Path 33" class="shp3" d="M826.37 2469.62C826.37 2469.62 850.81 2297.04 890.15 2279.1C929.48 2261.17 1142.46 2286.02 1174.33 2305.48C1206.21 2324.96 1153.1 2527.67 1144.96 2584.38C1144.48 2587.77 1143.96 2591.17 1143.4 2594.52C1129.96 2676.4 1137.73 2760.15 1166.6 2837.58C1050.06 2872.98 1019.83 2892.44 894.85 2888.96L848.19 2615.96C848.19 2615.96 811.1 2483.83 826.37 2469.62Z" />
		<path id="Path 34" class="shp13" d="M1059.29 2165.5C1059.29 2165.5 1069.08 2260.54 1077.48 2283.85C1085.87 2307.15 1054.98 2354.56 1004.62 2367.69C954.25 2380.81 990.9 2317.06 989.71 2292.42C988.52 2267.79 983.65 2151.15 983.65 2151.15L1059.29 2165.5Z" />
		<path id="Path 35" class="shp10" d="M1060.46 2176.42C1054.21 2183.56 1046.62 2190 1037.44 2195.42C1018.42 2206.62 1000.98 2209.1 985.94 2205.65C984.71 2176.27 983.65 2151.15 983.65 2151.15L1059.29 2165.5C1059.29 2165.5 1059.73 2169.67 1060.46 2176.42Z" />
		<path id="Path 36" class="shp13" d="M1041.65 1991.94C1041.65 1991.94 1071.37 1999.79 1088.87 2028.79C1106.35 2057.81 1116.06 2141.71 1053.71 2178.46C991.33 2215.21 945.9 2158.42 947.04 2104.65C948.19 2050.9 962.25 1979.58 1041.65 1991.94ZM928.12 2082.12C928.81 2096.08 935.94 2107.06 944.04 2106.67C952.17 2106.25 958.19 2094.58 957.5 2080.62C956.81 2066.67 949.69 2055.69 941.58 2056.1C933.46 2056.5 927.44 2068.17 928.12 2082.12ZM1087.17 2103.52C1082.23 2117.33 1085.79 2131.23 1095.08 2134.56C1104.4 2137.9 1115.92 2129.42 1120.85 2115.6C1125.77 2101.79 1122.21 2087.9 1112.92 2084.56C1103.6 2081.23 1092.08 2089.71 1087.17 2103.52Z" />
		<path id="Path 37" class="shp2" d="M1174.33 2305.48C1174.33 2305.48 1138.02 2324.54 1115.75 2377.69C1093.48 2430.85 1169.31 2702.08 1185.5 2719.46C1201.67 2736.85 1246.4 2739.56 1254.04 2697.08C1261.67 2654.6 1235.94 2318.9 1174.33 2305.48Z" />
		<path id="Path 38" class="shp14" d="M957.12 2269.17L1019.73 2645.21L776 2684.52L698.62 2332.75C698.62 2332.75 899.15 2251.56 957.12 2269.17ZM486.69 2280.77C509.98 2271.6 535.38 2269.27 559.94 2274.08C605.54 2283 678.06 2301.48 707.17 2332.75C751.08 2379.96 791.73 2692.19 791.73 2692.19L602.25 2649.71L486.69 2280.77Z" />
		<path id="Path 39" class="shp15" d="M1138.54 2924.02C1106.67 2835.52 745.62 2513.42 650.04 2538.19L701.37 2734.65C701.37 2734.65 808.65 3054.46 913.77 3095.71C1018.87 3136.96 1117.29 3090.4 1117.29 3090.4C1117.29 3090.4 1170.4 3012.52 1138.54 2924.02Z" />
		<path id="Path 40" class="shp13" d="M1008.9 2407.23C1004.4 2416.21 1033.1 2432.25 1041.44 2438.33C1049.79 2444.42 1084.4 2438.17 1084.4 2438.17C1084.4 2438.17 1013.9 2397.21 1008.9 2407.23Z" />
		<path id="Path 41" class="shp16" d="M700.44 2828.23C700.44 2828.23 608.69 3018.9 608.37 3038.73C607.94 3067.33 475.73 3059.48 504.44 3047.25C511.04 3044.44 531.85 3033.9 533.46 3032.52C541.98 3025.17 618.12 2788.42 618.12 2788.42L700.44 2828.23Z" />
		<path id="Path 42" class="shp15" d="M729.69 2600.15C725.27 2595.25 678.77 2576.77 642.98 2621.37C607.19 2665.98 538.54 3013.1 538.54 3013.1L622.92 3021.37C622.92 3021.37 832.92 2714 729.69 2600.15Z" />
		<path id="Path 43" class="shp10" d="M456.77 2339.85L565.31 2656.27C569.67 2668.96 580.5 2678.08 593.38 2679.92C695.15 2694.31 748.23 2701.63 748.23 2701.63C748.23 2701.63 768.08 2702.65 789.12 2702.92L1022.06 2678.06C1042.31 2675.9 1056.46 2656.27 1052.69 2635.54L995.98 2324.85C992.48 2305.67 974.83 2292.85 956.21 2296L732.12 2333.67C712.31 2333.12 693.02 2332.6 673.23 2332.06L496.92 2292.58C470.27 2286.62 447.65 2313.25 456.77 2339.85Z" />
		<path id="Path 44" class="shp13" d="M930.85 2493.75C930.85 2493.75 993.35 2505.33 1014.71 2504.71C1036.06 2504.06 1063.75 2510.81 1063.75 2510.81C1063.75 2510.81 1133.52 2674.87 1143.54 2693.19C1173.42 2747.81 1256.27 2741.37 1254.92 2695.81C1253.81 2659.6 1112.29 2432.56 1074.67 2433.69C1037.04 2434.81 919.25 2410.25 915.71 2425.23C913.81 2433.27 1024.19 2437.04 1006.77 2443.87C995.96 2448.12 909.56 2438.42 909.87 2448.58C910.19 2458.75 987.92 2459.71 996.29 2467.6C1004.67 2475.48 913.56 2457.94 914.08 2475.19C914.35 2483.9 994.33 2477.6 1003.1 2490.79C1006.75 2496.29 924.23 2476.65 930.85 2493.75ZM509.29 2466.98C504.4 2464.85 498.69 2467.62 497.48 2472.81C496.25 2478.15 495.98 2484.56 499.94 2488.81C507.77 2497.23 562.46 2505.31 562.75 2497.17C562.98 2490.92 526.29 2474.33 509.29 2466.98ZM498.67 2488.21C498.67 2488.21 493.19 2508.71 497.92 2508.88C502.67 2509.04 561.83 2514.92 564.46 2507.88C567.1 2500.85 506.29 2484.08 498.67 2488.21ZM496.1 2509.37C496.1 2509.37 494.42 2518.48 499.33 2523.73C504.23 2529 559.31 2525.56 561.33 2516.81C563.35 2508.06 498.04 2502.65 496.1 2509.37ZM504.52 2528.62C504.52 2528.62 504.44 2535.56 507.21 2538.54C510 2541.54 550.69 2537.4 554.73 2528.73C558.77 2520.04 509.25 2519.62 504.52 2528.62ZM642.52 3009.87C642.52 3009.87 623.1 3080.17 603.58 3126.67C590.81 3157.1 587.52 3187.46 579.06 3202.65C557.69 3241.06 522.73 3242.6 494.96 3219.52C467.19 3196.46 504.44 3099.1 504.44 3099.1L592.08 2975.79L642.52 3009.87Z" />
		<path id="Path 45" class="shp10" d="M579.06 3202.65C586.58 3189.15 590.04 3163.69 599.67 3136.83C586.27 3144.62 563.77 3150.48 551.54 3147.21C506.69 3135.23 504.44 3099.1 504.44 3099.1C504.44 3099.1 457.69 3198.87 485.46 3221.96C513.21 3245.02 557.69 3241.06 579.06 3202.65Z" />
		<path id="Path 46" class="shp11" d="M732.15 2333.67L803.92 2705.1L760.73 2702.52L748.23 2701.63L673.25 2332.08L732.15 2333.67Z" />
		<path id="Path 47" class="shp6" d="M982.17 3073.98C1006.73 3119.19 1055.71 3126.23 1099.79 3122.52C1148.56 3118.42 1202.25 3091.75 1216.65 3035.77C1232.04 2976 1211.79 2902 1176.29 2855.08C994.58 2615 993.17 2591.33 920.83 2559.44C842.75 2525 552.71 3020.48 552.71 3020.48L632.35 3061.19C632.35 3061.19 751.81 2961.33 828.15 2873.79C837.12 2863.48 862.67 2810.23 862.67 2810.23C862.67 2810.23 965.92 3044.1 982.17 3073.98Z" />
		<path id="Path 48" class="shp15" d="M984.83 1629.91C908.04 1641.52 883.98 1741.79 947.08 1787.62C958.44 1795.85 966.19 1808.1 969.4 1821.75L980.37 1868.69C983.4 1881.62 995.85 1890.06 1009 1888.08L1038.08 1883.67C1051.23 1881.69 1060.63 1869.94 1059.71 1856.69C1056.29 1808.33 1051.54 1790.75 1067.52 1769.42C1114.27 1706.98 1061.67 1618.29 984.83 1629.91Z" />
		<path id="Path 49" class="shp6" d="M1001.6 1851.4L1001.54 1851.42C997.67 1851.96 994.1 1849.25 993.56 1845.4L979.25 1743.04L955.27 1722.5C952.31 1719.96 951.96 1715.5 954.5 1712.54C957.04 1709.58 961.5 1709.23 964.46 1711.77L992.5 1735.79L1007.56 1843.44C1008.08 1847.27 1005.44 1850.83 1001.6 1851.4ZM1037.23 1850.4L1037.31 1850.37C1041.15 1849.75 1043.77 1846.12 1043.15 1842.27L1026.56 1740.25L1043.4 1713.56C1045.48 1710.25 1044.48 1705.9 1041.19 1703.81C1037.87 1701.73 1033.52 1702.71 1031.44 1706.02L1011.75 1737.25L1029.19 1844.54C1029.81 1848.35 1033.4 1850.96 1037.23 1850.4Z" />
		<path id="Path 50" class="shp1" d="M969.06 1820.58C969.17 1820.98 969.29 1821.35 969.4 1821.75L980.37 1868.69C983.4 1881.62 995.85 1890.06 1009 1888.08L1038.08 1883.67C1051.23 1881.69 1060.63 1869.94 1059.71 1856.69C1058.19 1835.19 1056.42 1819.77 1056.31 1807.4L969.06 1820.58Z" />
		<path id="Path 52" class="shp14" d="M3788.1 962.37L3765.73 930.04L3726.44 930.13C3721.96 930.14 3719.42 925.01 3722.12 921.45L3745.96 890.2L3733.75 852.85C3732.35 848.6 3736.44 844.59 3740.67 846.08L3777.75 859.09L3809.48 835.92C3813.1 833.28 3818.17 835.93 3818.06 840.41L3817.15 879.7L3849 902.73C3852.62 905.35 3851.67 910.99 3847.4 912.28L3809.73 923.55L3797.67 960.95C3796.29 965.21 3790.62 966.05 3788.1 962.37Z" />
		<path id="Path 56" class="shp15" d="M3938.71 1520.03C3943.77 1501.81 3960.1 1492.29 3977.98 1497.25C3996.52 1502.4 4004.94 1518.8 4000.23 1537.1C3995.27 1554.97 3979.17 1564.95 3960.6 1559.79C3942.4 1554.74 3933.75 1537.9 3938.71 1520.03ZM3960.81 1475.09C3963.58 1467.94 3962.62 1442.34 3998.19 1417.73C4012.81 1407.72 4024.81 1399.2 4028.04 1387.52C4033.65 1367.36 4012.44 1357.69 3991.29 1357.78C3980.37 1357.84 3971.44 1349.07 3971.08 1338.14C3970.73 1327.04 3979.35 1317.74 3990.44 1317.2C4002.56 1316.61 4016.83 1317.78 4031.81 1321.94C4077.19 1334.54 4090.83 1365.35 4082.92 1393.87C4075.67 1419.99 4054.75 1432.69 4037.69 1443.5C4008.96 1461.74 4008.96 1482.08 4006.52 1487.77L3960.81 1475.09ZM2445.52 162.45C2374.9 162.45 2339.6 249.36 2390.15 299.15C2399.21 308.09 2404.54 320.17 2405.54 332.87L2409.04 376.57C2410.02 388.61 2420.06 397.9 2432.15 397.9L2458.92 397.9C2471 397.9 2481.04 388.61 2482 376.57C2485.52 332.62 2483.65 316.16 2500.92 299.15C2551.44 249.37 2516.19 162.45 2445.52 162.45Z" />
		<path id="Path 57" class="shp6" d="M2430.5 363.92L2430.42 363.92C2426.87 363.88 2424.02 360.97 2424.06 357.42L2425.1 263.43L2406.35 241.71C2404.02 239.02 2404.33 234.96 2407.02 232.64C2409.69 230.32 2413.75 230.62 2416.08 233.3L2438.02 258.71L2436.92 357.56C2436.87 361.09 2434.02 363.92 2430.5 363.92ZM2462.67 367.85L2462.73 367.85C2466.27 367.81 2469.13 364.9 2469.08 361.35L2468.04 267.36L2486.81 245.63C2489.12 242.95 2488.83 238.89 2486.15 236.57C2483.46 234.25 2479.4 234.55 2477.08 237.23L2455.12 262.64L2456.23 361.49C2456.27 365.01 2459.15 367.85 2462.67 367.85Z" />
		<path id="Path 58" class="shp1" d="M2405.42 331.78C2405.46 332.14 2405.52 332.5 2405.54 332.87L2409.04 376.57C2410.02 388.61 2420.06 397.9 2432.15 397.9L2458.92 397.9C2471 397.9 2481.04 388.61 2482 376.57C2483.58 357.02 2484.08 342.92 2485.67 331.78L2405.42 331.78Z" />
		<path id="Path 59" class="shp6" d="M2581.46 42.8L2520.4 146.33L2623.94 69.35L2581.46 42.8ZM2333.19 16.13L2395.62 122.44L2385 0.33L2333.19 16.13ZM2224.65 168.34L2323.96 207.39L2222.58 213.47L2224.65 168.34ZM2531.02 308.27L2570.83 358.71L2600.04 324.2L2531.02 308.27ZM2570.83 215.36L2661.1 178.19L2663.75 218.01L2570.83 215.36ZM2334.56 316.23L2249.62 356.05L2276.17 387.91L2334.56 316.23Z" />
		<path id="Path 62" class="shp8" d="M634.77 2069.19L576.04 1928.9C571.17 1917.29 577.02 1903.98 588.87 1899.71L603.17 1894.56C615 1890.29 627.98 1896.79 631.65 1908.81L676.21 2054.27L634.77 2069.19ZM640.94 2123.9C634.85 2105.81 645 2085.52 663.1 2079.54C681.96 2073.31 699.13 2082.56 706.29 2101.33C713.1 2120.23 705.48 2139 685.85 2146.06C665.94 2153.23 647.48 2143.37 640.94 2123.9Z" />
		<path id="Path 63" class="shp16" d="M3310.02 1941.87C3310.02 1941.87 3461.4 2007.83 3474.77 2010.77C3483.15 2012.6 3579.35 1912.9 3631.79 1873.94C3634.23 1872.12 3643.54 1858.87 3646.17 1857.56C3677.37 1841.9 3624.6 1932.19 3624.6 1932.19C3624.6 1932.19 3513 2074.12 3487.75 2086.29C3456.02 2101.56 3299.29 2024.06 3300.25 2019.6L3310.02 1941.87Z" />
		<path id="Path 64" class="shp4" d="M3286.02 1800.19C3292.54 1755.58 3323.5 1660.62 3294.94 1622.65C3254.77 1569.26 3169.9 1571.57 3129.79 1622.88C3111.42 1646.4 3101.48 1675.23 3091.79 1703.46C3085.52 1721.67 3079.21 1740 3070.4 1757.17C3062.5 1772.52 3053.48 1791.71 3038.5 1801.04C2971.85 1842.54 2897.21 1869.29 2892.42 1962.79C2886.71 2073.71 3008.19 2212.44 3157.38 2145.29C3214.48 2119.56 3289.29 2036.44 3313.71 1978.92C3324.71 1952.98 3319.46 1955.71 3313.37 1916.19C3307.94 1880.81 3280.77 1836.1 3286.02 1800.19Z" />
		<path id="Path 65" class="shp7" d="M3204.85 1866.52L3407.52 1978.02L3359.73 2050.58C3359.73 2050.58 3207.15 1992.44 3176.29 1984.12C3145.44 1975.79 3169.75 1863.5 3204.85 1866.52Z" />
		<path id="Path 66" class="shp13" d="M3201.37 1769.79C3201.37 1769.79 3196.1 1846.96 3192.19 1868.58C3188.1 1890.94 3185.65 1984.02 3232.12 1995.4C3278.63 2006.75 3261.17 1880.73 3261.94 1858.13C3262.71 1835.52 3267.25 1762.1 3267.25 1762.1L3201.37 1769.79Z" />
		<path id="Path 67" class="shp10" d="M3200.73 1779.04C3204.23 1784.23 3208.42 1789.23 3213.4 1793.92C3230.52 1810.08 3248.15 1815.33 3264.21 1813.23C3265.67 1787.65 3267.25 1762.1 3267.25 1762.1L3201.37 1769.79C3201.37 1769.79 3201.15 1773.29 3200.73 1779.04Z" />
		<path id="Path 68" class="shp13" d="M3249.42 1622.07C3249.42 1622.07 3221.17 1622.99 3199.54 1645.31C3177.92 1667.65 3152.04 1740.6 3200.42 1786.25C3248.79 1831.9 3296.65 1792.69 3306.63 1744.4C3316.6 1696.12 3323.15 1627.35 3249.42 1622.07Z" />
		<path id="Path 69" class="shp4" d="M3275.96 1624.35C3275.96 1624.35 3246.46 1700.46 3176.79 1694.02C3145.23 1691.1 3138.08 1734.19 3138.08 1734.19C3138.08 1734.19 3163.9 1631.88 3196.31 1616.68C3228.71 1601.47 3275.96 1624.35 3275.96 1624.35Z" />
		<path id="Path 70" class="shp13" d="M3185.77 1712.44C3187.35 1725.77 3181.33 1737.48 3172.29 1738.54C3163.27 1739.62 3154.69 1729.67 3153.08 1716.31C3151.5 1702.96 3157.54 1691.27 3166.56 1690.21C3175.58 1689.13 3184.19 1699.08 3185.77 1712.44Z" />
		<path id="Path 71" class="shp11" d="M3703.54 1737.44L3531.98 2087.98C3527.9 2096.35 3529.17 2106.06 3534.77 2109.35L3660.1 2182.75L3816.77 1872.1C3816.77 1872.1 3748.52 1769.98 3722.9 1731.67C3718.17 1724.6 3708.42 1727.5 3703.54 1737.44Z" />
		<path id="Path 72" class="shp6" d="M3554 2076.48L3703.29 1771.46C3708.15 1761.5 3717.92 1758.6 3722.65 1765.69C3743.44 1796.79 3774.87 1843.83 3797.46 1877.62L3656.85 2156.44L3556.79 2097.83C3551.17 2094.56 3549.92 2084.85 3554 2076.48Z" />
		<path id="Path 73" class="shp16" d="M3635.54 1850.87C3637.31 1847.79 3645.44 1841.12 3648.88 1840.21C3656.1 1838.29 3664.85 1838.56 3666.29 1843.23C3668.4 1850.02 3647 1857.52 3647 1857.52L3635.35 1874.4C3635.35 1874.4 3629.92 1860.62 3635.54 1850.87Z" />
		<path id="Path 74" class="shp13" d="M3195.5 1847.77C3195.5 1847.77 3248.33 1891.42 3263.48 1906.56C3278.54 1921.6 3304.85 1939.98 3304.85 1939.98L3262.17 1880.9L3235.1 1855.65L3195.5 1847.77Z" />
		<path id="Path 75" class="shp16" d="M3851.17 2547.04C3842.96 2540.21 3835.48 2520.75 3832.48 2512.21C3814.73 2420.33 3730.79 2171.83 3639.37 2171.83C3559.71 2171.83 3313.71 2364.75 3198.67 2476.25C3165.44 2508.44 3167.69 2481.12 3188.04 2488.65C3200.21 2493.12 3282.33 2629.75 3295.48 2630.35C3335.65 2632.19 3372.79 2605.29 3406.33 2586.56C3457.46 2558.04 3493 2525.48 3522.69 2481.15C3597.94 2368.81 3626.13 2302.71 3648.79 2259.73C3648.79 2259.73 3670.19 2348.15 3680.67 2369.46C3704.33 2417.6 3775.1 2536.23 3802.77 2582.44L3911.33 2579.5C3911.33 2579.5 3861.77 2555.9 3851.17 2547.04Z" />
		<path id="Path 76" class="shp13" d="M3646.44 2223.17C3646.44 2223.17 3281.85 2393.06 3258.83 2451.46C3235.83 2509.87 3253.54 2596.6 3306.63 2614.29C3359.73 2632 3688.92 2350.58 3688.92 2350.58C3688.92 2350.58 3731.4 2428.46 3791.56 2481.56C3823.65 2509.85 3877.87 2532.96 3908.83 2553.69C3935.94 2571.83 3942.02 2589.52 3942.02 2589.52L4018.12 2593.06C4018.12 2593.06 4005.29 2588.67 3982.27 2557.67C3904.56 2452.96 3724.27 2209.5 3646.44 2223.17Z" />
		<path id="Path 77" class="shp12" d="M3505.73 2201.92C3505.73 2201.92 3622.85 2328.17 3645.85 2494.54C3645.85 2494.54 3462.38 2573.58 3372.1 2621.37C3281.85 2669.17 3180.96 2619.6 3149.1 2566.52C3117.25 2513.42 3149.1 2363.85 3149.1 2363.85L3336.71 2334.67L3505.73 2201.92Z" />
		<path id="Path 78" class="shp7" d="M3783.6 2550.87C3774.27 2547.31 3771.02 2594.52 3769.48 2605.06C3767.75 2616.92 3773.42 2624.92 3774.83 2625.92C3778.71 2628.58 3929.06 2631.56 3957.81 2623.83C3959.75 2623.31 3963.81 2620.88 3964.52 2620.25C3985.65 2601.83 3887.96 2552.98 3868.27 2557.06C3850.75 2560.71 3825.58 2566.87 3783.6 2550.87Z" />
		<path id="Path 79" class="shp8" d="M3192.48 1868.29C3192.48 1868.29 3163.87 1868.04 3133.29 1933.92C3095.69 2014.9 3149.33 2323.92 3145.44 2368.02C3145.44 2368.02 3158.69 2383.25 3235.87 2394.4C3304.25 2404.27 3342.92 2355.46 3342.92 2355.46C3342.92 2355.46 3325.5 2236.12 3351.87 2123.9C3366.17 2063.06 3373.69 2004.08 3317.25 1949.42C3260.81 1894.73 3192.48 1868.29 3192.48 1868.29ZM3909.83 2553.79C3900.5 2550.25 3892.46 2595.71 3893.15 2606.83C3893.9 2618.77 3896.92 2627.48 3898.35 2628.46C3902.23 2631.12 4052.73 2633.33 4081.48 2625.6C4083.42 2625.08 4087.48 2622.65 4088.21 2622.02C4109.31 2603.6 4000.69 2557.52 3980.98 2561.6C3963.48 2565.25 3951.79 2569.79 3909.83 2553.79Z" />
		<path id="Path 80" class="shp10" d="M3809.19 1722.92L3524.83 2136.98C3518.29 2146.52 3519.83 2158.12 3528.06 2161.21L3720.38 2232.87L3947.83 1906.83L3834.35 1718.81C3829.23 1710.33 3816.4 1712.42 3809.19 1722.92Z" />
		<path id="Path 81" class="shp13" d="M3741.6 2036.85C3737.96 2029.79 3708.42 2045.46 3708.42 2045.46C3708.42 2045.46 3682.12 2050.02 3680.27 2049.04C3678.17 2047.94 3697.92 2046.29 3697.92 2046.29C3697.92 2046.29 3730.21 2035.25 3729.85 2031.62C3728.37 2016.73 3708.15 2035.27 3692.29 2035.96C3680.21 2036.48 3667.06 2035.94 3655.4 2034.29C3650.75 2031.69 3662.6 2025.81 3662.6 2025.81C3662.6 2025.81 3678.12 2018.83 3675.65 2014.75C3669.62 2004.83 3633.29 2023.69 3625.65 2030.69C3620.52 2035.37 3614.13 2044.48 3605.21 2049.52C3566.42 2071.46 3519.92 2109.12 3465.02 2135.54C3446.85 2120.29 3271.5 1962.9 3267.1 1959.06L3171.33 2034.5C3171.46 2034.6 3446.06 2243.75 3461.33 2243.25C3480.52 2242.62 3594.88 2121.92 3625.83 2093.17C3630.5 2088.81 3659.92 2085.54 3667.98 2086.67C3685.96 2089.17 3719.65 2075.06 3719.65 2075.06C3730.02 2064.1 3681.4 2075.19 3686 2072.33C3688.04 2071.06 3699.92 2069.85 3711.75 2068.17C3723.81 2066.44 3734.71 2059.54 3736.19 2056.25C3739.06 2049.79 3709.1 2059.04 3709.1 2059.04L3684.12 2060.58L3708.02 2055.71C3708.02 2055.71 3745.17 2043.73 3741.6 2036.85Z" />
		<path id="Path 82" class="shp5" d="M3240.17 1911.21C3209.21 1879.52 3149.67 1884.13 3132.29 1929.35C3127.46 1941.94 3127.67 1978.02 3133.19 1991.31C3155.21 2044.4 3283.62 2131.12 3283.62 2131.12L3354.42 2034.67L3240.17 1911.21Z" />
		<path id="Path 83" class="shp13" d="M1967.67 988.65C1967.67 984.58 1972.67 958.35 1972.67 958.35C1972.67 958.35 1961 921.15 1959.81 921.06C1935.79 919.34 1917.67 935.67 1921.73 957.62L1921.96 958.35C1934.4 998.05 1967.85 1027.54 2008.79 1034.88C2018.15 1036.56 2028.02 1038.31 2038.15 1040.08C2033.38 1024.14 2030.44 1007.86 2030.6 991.12C1995.5 990.84 1967.67 990.15 1967.67 988.65Z" />
		<path id="Path 84" class="shp7" d="M2373.9 824.51C2373.25 822.52 2162.71 959.47 2162.71 959.47C2162.71 959.47 2072.83 960.35 2006.46 959.78C2006.27 979.83 2009.52 999.34 2014.79 1018.44C2080.4 1030.86 2155.12 1043.96 2172.15 1042.65C2203.81 1040.21 2362.69 960.94 2362.69 960.94C2362.69 960.94 2374.4 826 2373.9 824.51Z" />
		<path id="Path 85" class="shp8" d="M2376.27 1335.86C2375.83 1332.42 2331.35 1179.87 2326.71 1043.24C2323.1 937.29 2355.92 842.31 2372.73 824.96C2378.94 818.47 2436.73 804.6 2436.73 804.6L2415.69 839.54C2394.29 879.91 2388.5 915.67 2379.21 961.24C2352.29 1093.37 2473.27 1357.75 2467.12 1359.46C2460.25 1361.36 2377.98 1349.39 2376.27 1335.86Z" />
		<path id="Path 86" class="shp14" d="M1914.85 802.6L1877.9 826.73L1988.4 1012.67L2023.1 861.68L1914.85 802.6ZM1937.69 773.36L1984.12 927.69L2021.33 861.02L1937.69 773.36ZM2244.4 755.54L2280.1 885.13L2016.92 861.24L2244.4 755.54Z" />
		<path id="Path 87" class="shp13" d="M2094.27 1303.82C2094.27 1303.82 1982.42 1440.46 1982.1 1460.32C1981.67 1488.91 1849.46 1481.07 1878.17 1468.83C1884.77 1466.02 1905.58 1455.48 1907.19 1454.11C1915.73 1446.75 2003.83 1274.25 2003.83 1274.25L2094.27 1303.82Z" />
		<path id="Path 88" class="shp17" d="M1819.92 1481.88L1904.96 1455.43C1904.96 1455.43 1934.29 1470.37 1982.1 1460.67C1982.1 1460.67 1994.56 1480.7 1996.65 1506.92C1997 1511.44 1999.23 1524.85 1994.75 1525.54C1978.5 1528.04 1933.5 1526.98 1882.73 1528.15C1882.73 1528.15 1814.35 1528.95 1771.6 1514.84C1728.83 1500.72 1819.92 1481.88 1819.92 1481.88Z" />
		<path id="Path 89" class="shp11" d="M2635.85 1336.45C2635.85 1336.45 2535.21 1313.46 2441.17 1246.19C2332.33 1168.35 2209.9 1087.38 2161.52 1093.98C2122.58 1099.29 1896.04 1410.79 1896.04 1410.79L2005.77 1458.57L2204 1255.04C2204 1255.04 2406.48 1463.79 2473.02 1478.04C2624.54 1510.5 2672.96 1398.76 2635.85 1336.45Z" />
		<path id="Path 90" class="shp15" d="M1872.71 826.76L2025.33 1150.06C2026.02 1151.53 2027.35 1152.6 2028.92 1152.96L2130.85 1181.31L2000.6 861.03L1879.25 819.47C1874.81 817.94 1870.71 822.51 1872.71 826.76Z" />
		<path id="Path 91" class="shp17" d="M2392.06 521.32C2392.06 521.32 2420.27 482.88 2451.73 521.3C2451.73 521.3 2470.46 507.43 2487.17 525.8C2487.17 525.8 2522.21 510.21 2537.96 563.57C2537.96 563.57 2556.27 557.65 2561.56 579.63C2566.87 601.6 2557.44 617.89 2557.44 617.89C2557.44 617.89 2568.96 624.45 2566.77 645.55C2564.92 663.49 2550.83 667.97 2550.83 667.97C2550.83 667.97 2550.67 697.82 2539.06 708.28C2527.44 718.74 2509.56 716.69 2509.56 716.69C2509.56 716.69 2506.98 733.19 2491.96 733.66C2476.92 734.13 2456.73 722.31 2440.92 730.79C2425.08 739.26 2381.08 738.01 2381.08 738.01C2381.08 738.01 2329.87 722.58 2338.1 671.21C2338.1 671.21 2309.73 651.45 2328.52 621.03C2328.52 621.03 2306.77 579.94 2335.73 550.39C2364.69 520.84 2392.06 521.32 2392.06 521.32Z" />
		<path id="Path 92" class="shp13" d="M2236.73 1738.21C2236.73 1738.21 2242.94 1906.35 2246.77 1934.83C2250.6 1963.17 2175.42 2048.56 2185.02 2018.85C2187.23 2012.02 2192.94 1989.42 2192.94 1987.31C2192.98 1976.04 2165.06 1784.23 2165.06 1784.23L2236.73 1738.21Z" />
		<path id="Path 93" class="shp17" d="M2156.67 2071.37L2192.48 1989.85C2192.48 1989.85 2223 1977.5 2247.04 1935.06C2247.04 1935.06 2270.33 1938.79 2291.48 1954.42C2295.15 1957.12 2306.73 1964.23 2304.29 1968.06C2295.52 1981.98 2265.21 2015.25 2232.79 2054.31C2232.79 2054.31 2188.54 2106.46 2149.83 2129.48C2111.12 2152.5 2156.67 2071.37 2156.67 2071.37Z" />
		<path id="Path 94" class="shp10" d="M2163.29 1913.44C2171.15 1905.44 2083.73 1475.31 2126.13 1433.79C2168.52 1392.28 2451.77 1331.14 2451.77 1331.14L2488.94 1200.17C2488.94 1200.17 2607.37 1234.89 2655.31 1306.36C2681.52 1345.45 2654.73 1434.57 2650 1444.41C2609.54 1528.65 2509.6 1532.91 2436.87 1532.16C2369.98 1531.47 2251.19 1530.55 2251.19 1530.55L2250.9 1910.77C2250.9 1910.77 2221.69 1917.85 2198.69 1916.98C2167.21 1915.75 2163.29 1913.44 2163.29 1913.44Z" />
		<path id="Path 95" class="shp18" d="M2425.87 813.81L2502.58 786.24C2502.58 786.24 2504.9 786.36 2505.6 786.27C2513.83 785.23 2604.35 1081.4 2633.88 1193.44C2663.42 1305.48 2624.73 1284.23 2624.73 1284.23C2624.73 1284.23 2557.06 1326.4 2478.33 1329.37C2396.46 1332.46 2412.83 1233.8 2412.83 1233.8C2412.83 1233.8 2369.73 1027.81 2374.79 957.7C2379.83 887.59 2425.87 813.81 2425.87 813.81Z" />
		<path id="Path 96" class="shp13" d="M2427.08 753.58L2426.79 791.33L2426.75 798.03C2426.75 798.03 2421.52 862.67 2440.04 872.66C2458.56 882.64 2502.54 786.25 2502.54 786.25L2482.62 676.59L2427.08 753.58Z" />
		<path id="Path 97" class="shp10" d="M2489.06 712.25C2479.83 751.8 2449.37 779.26 2426.81 791.27L2427.1 753.58L2482.62 676.6L2489.06 712.25Z" />
		<path id="Path 98" class="shp13" d="M2428.65 565.22C2392.69 557.73 2358.85 585.27 2358.1 621.45C2357.79 637.18 2358.17 656.85 2360.48 678.13C2366.02 729.3 2398.75 775.62 2421.94 772.69C2445.1 769.75 2504.98 728.58 2498.1 655.82C2493.87 610.89 2466.37 573.08 2428.65 565.22ZM2481.77 663.71C2483.19 674.97 2491.81 683.16 2501.02 681.99C2510.23 680.82 2516.54 670.75 2515.1 659.49C2513.69 648.22 2505.06 640.04 2495.85 641.21C2486.65 642.38 2480.33 652.45 2481.77 663.71Z" />
		<path id="Path 99" class="shp17" d="M2325 552.55C2303.46 574.55 2298.73 604.44 2314.42 619.3C2330.12 634.16 2360.31 628.37 2381.83 606.37C2403.37 584.36 2408.12 554.48 2392.42 539.62C2376.73 524.76 2346.54 530.55 2325 552.55ZM2389.58 560.17C2390.63 568.41 2401.42 573.83 2413.71 572.28C2425.98 570.72 2435.08 562.77 2434.04 554.53C2433 546.29 2422.19 540.87 2409.92 542.42C2397.65 543.98 2388.54 551.92 2389.58 560.17ZM2331.46 631.99C2332.81 642.59 2342.4 650.1 2352.87 648.77C2363.35 647.44 2370.77 637.77 2369.42 627.18C2368.08 616.58 2358.5 609.06 2348.02 610.39C2337.54 611.72 2330.12 621.39 2331.46 631.99Z" />
		<path id="Path 100" class="shp8" d="M2502.54 786.25C2502.54 786.25 2577.6 774.06 2602.85 784.8C2618.9 791.63 2639.33 927.77 2639.33 927.77C2639.33 927.77 2640.15 1065.47 2649.54 1104.3C2681.35 1235.92 2725.79 1351.19 2720.79 1357.69C2688.15 1384.54 2551.54 1409.42 2541.17 1396.62C2426.54 1255.39 2502.54 786.25 2502.54 786.25Z" />
		<path id="Path 101" class="shp13" d="M2627.87 925.84C2627.87 925.84 2552.69 1158.25 2519.79 1182.62C2486.9 1206.98 2338.96 978.94 2338.96 978.94C2338.96 978.94 2273.46 941.77 2268.81 941.38C2250.23 939.83 2307.54 930.26 2307.54 930.26L2314.62 870.97C2314.62 870.97 2317.42 871.4 2334.52 890.66C2357.65 916.7 2377.75 957.09 2387.19 963.89L2486.29 1039.11L2536.73 878.05L2627.87 925.84Z" />
		<path id="Path 102" class="shp6" d="M2000.6 861.03L2031.73 857.99L2165.12 1189.98L2130.83 1181.29L2000.6 861.03Z" />
		<path id="Path 103" class="shp15" d="M2297.27 780.13L2377.56 1171C2378.9 1177.45 2374.08 1183.54 2367.48 1183.75L2165.12 1189.99L2031.73 858.01L2283.44 772.21C2289.5 770.15 2295.98 773.86 2297.27 780.13Z" />
		<path id="Path 104" class="shp5" d="M2378.77 949.73L2353.1 1005.93C2353.1 1005.93 2479.21 1213.44 2518.15 1201.94C2557.08 1190.44 2630.54 965.66 2642.04 903.72C2653.54 841.77 2629.65 790.44 2597.79 782.48C2565.94 774.51 2541.17 828.5 2531.42 851.5C2521.69 874.51 2486.29 1039.11 2486.29 1039.11L2378.77 949.73Z" />
		<path id="Path 105" class="shp13" d="M1930.44 952.83C1930.44 952.83 1925.71 944.52 1924.21 939.46C1922.69 934.39 1953.73 916.78 1966 924.81C1978.29 932.84 1945.48 945.06 1930.44 952.83ZM1931.73 973.14C1931.73 973.14 1923.94 964.95 1922.44 959.89C1920.92 954.82 1962.23 934.03 1974.5 942.06C1986.79 950.09 1946.77 965.37 1931.73 973.14ZM1945.9 987.29C1945.9 987.29 1938.1 979.11 1936.58 974.05C1935.06 968.98 1966.1 951.37 1978.4 959.4C1990.69 967.42 1960.94 979.53 1945.9 987.29ZM2321.25 893.98L2314.81 893.98C2311.75 893.98 2308.71 893.66 2305.73 893C2293.81 890.4 2261.25 883.94 2258.71 890.44C2255.62 898.41 2305.62 907.7 2305.62 907.7C2305.62 907.7 2250.75 900.62 2250.75 909.91C2250.75 919.2 2306.5 924.07 2306.5 924.07C2306.5 924.07 2257.83 922.3 2256.94 927.61C2256.06 932.92 2316.69 947.96 2316.69 947.96C2316.69 947.96 2267.56 937.34 2262.69 943.54C2257.83 949.73 2339.69 979.6 2339.69 979.6L2321.25 893.98ZM1945.9 987.29C1945.9 987.29 1972.73 972.15 1979.81 976.87C1986.9 981.59 1956.81 1004.3 1956.81 1004.3L1960.42 1012.6C1960.42 1012.6 1941.19 997.72 1945.9 987.29Z" />
	</g>
</svg>
