<svg xmlns="http://www.w3.org/2000/svg" viewBox="0 0 6198 3542" width="6198" height="3542">
	<defs>
		<clipPath clipPathUnits="userSpaceOnUse" id="cp1">
			<path d="M0 0L6198 0L6198 3542L0 3542Z" />
		</clipPath>
	</defs>
	<style>
		tspan { white-space:pre }
		.shp0 { fill: transparent } 
		.shp1 { fill: #fbecdb } 
		.shp2 { fill: #a8d29f } 
		.shp3 { fill: #4a75cb } 
		.shp4 { fill: #699dee } 
		.shp5 { fill: #d86713 } 
		.shp6 { fill: #f1a34f } 
		.shp7 { fill: #c95c12 } 
		.shp8 { fill: #82b378 } 
		.shp9 { fill: #ffb973 } 
		.shp10 { fill: #ed975d } 
		.shp11 { fill: #2b478b } 
		.shp12 { fill: #233862 } 
		.shp13 { fill: #1e3d70 } 
		.shp14 { fill: #ffb27d } 
		.shp15 { fill: #2c3a64 } 
		.shp16 { fill: #4a82d3 } 
		.shp17 { fill: #a9453d } 
		.shp18 { fill: #ee9849 } 
		.shp19 { fill: #e58638 } 
		.shp20 { fill: #2a4e96 } 
		.shp21 { fill: #35488b } 
		.shp22 { fill: #2e3552 } 
		.shp23 { fill: #4271bc } 
	</style>
	<g id="Page 1" clip-path="url(#cp1)">
		<path id="Path 1" class="shp0" d="M0 3542L6197.92 3542L6197.92 0.33L0 0.33L0 3542Z" />
		<path id="Path 2" class="shp1" d="M682.43 3192.96C682.43 3192.96 93.5 1938.81 1254.22 1938.81C1867.51 1938.81 1614.86 1594.71 2031.82 1196.48C2448.77 798.25 3906.96 480.09 4217.31 1249.08C4527.67 2018.08 3760.67 2601.94 4501.81 2501.77C5392.46 2381.42 5744.29 3192.96 5744.29 3192.96L682.43 3192.96Z" />
		<path id="Path 3" class="shp2" d="M5452.25 3033.83C5397.29 2993.67 5284.98 3020.79 5202.1 3049.79C5189.71 3032.4 5174.71 3014.46 5156.54 2996.94C5335.08 2881.92 5581.71 2636.63 5451 2615.85C5337.37 2597.81 5184.02 2818.6 5102.08 2953C5016.98 2895.75 4886.58 2853.67 4687.5 2868.27C4170.81 2906.15 3767.17 2572.85 3469.62 2684.02C3233.06 2772.4 3016.25 2821.92 2807.17 2805C2816.17 2652.25 2818.12 2352.35 2698.19 2321.25C2576.42 2289.67 2695.85 2630.25 2762.23 2800.31C2746.67 2798.31 2731.12 2795.94 2715.62 2793.17C2672.62 2708.42 2601.79 2597.5 2524.02 2593.71C2450.77 2590.12 2541.17 2689.85 2630.12 2774.33C2374.44 2720.65 2071.13 2928.5 2066.1 3174.25L5258.29 3174.25C5258.29 3174.25 5252.65 3138.37 5227.6 3091.08C5350.98 3088.67 5511.94 3077.46 5452.25 3033.83Z" />
		<path id="Path 4" class="shp3" d="M1921.08 2984.31L1921.08 3174.29L2762.42 3174.29L2762.42 2984.31L1921.08 2984.31Z" />
		<path id="Path 5" class="shp4" d="M1661.66 2984.31L1661.66 3174.29L2503 3174.29L2503 2984.31L1661.66 2984.31Z" />
		<path id="Path 6" class="shp5" d="M3093.4 3174.25L3719.87 3174.25L3719.87 2298.6L3093.4 2298.6L3093.4 3174.25Z" />
		<path id="Path 7" class="shp6" d="M2900.25 3174.25L3526.71 3174.25L3526.71 2298.6L2900.25 2298.6L2900.25 3174.25Z" />
		<path id="Path 8" class="shp7" d="M3526.71 2298.6L3719.87 2430.08L3719.87 2298.6L3526.71 2298.6Z" />
		<path id="Path 9" class="shp8" d="M1592.84 2492.56C1592.84 2492.56 1475.68 2579.69 1452.83 2574.4C1429.99 2569.13 1538.46 2480.35 1538.46 2480.35C1497.64 2460.73 1370.76 2473.04 1370.76 2473.04C1370.76 2473.04 1328.5 2609.33 1307.66 2598.58C1286.82 2587.83 1351.24 2479.81 1351.24 2479.81C1305.77 2477.06 1250.02 2510.83 1250.02 2510.83C1173.69 2571.1 1255.04 2666.02 1255.04 2666.02C1255.04 2666.02 1239.37 2712.92 1191.17 2755.65C1191.17 2755.65 1122.32 2806.56 1117.54 2897.54L1130.04 2898.65C1130.04 2898.65 1149.85 2813.92 1185.84 2773.85C1187.24 2772.4 1189.27 2770.31 1191.79 2767.79C1197.65 2762.35 1201.76 2758.27 1204.52 2755.25C1222.43 2738.02 1247.19 2716.1 1259.12 2713.98C1259.12 2713.98 1258.52 2711.79 1258.61 2707.98C1258.77 2709.9 1258.94 2711.88 1259.12 2713.98C1263.2 2761.94 1356.26 2803.83 1413.5 2812.44C1470.75 2821.06 1453.06 2797.52 1433.33 2762.65C1413.61 2727.75 1351.18 2712.12 1336.94 2696.06C1322.7 2680 1352.14 2679.96 1386.64 2695.71C1421.13 2711.46 1425.85 2753.48 1481.19 2779.98C1536.51 2806.46 1619.77 2714.65 1619.77 2714.65C1575.67 2712.42 1512.7 2664.52 1514.98 2649.87C1517.26 2635.21 1621.87 2675.15 1639.76 2677.06C1657.64 2678.98 1698.33 2656.73 1704.63 2584.71C1710.92 2512.67 1592.84 2492.56 1592.84 2492.56Z" />
		<path id="Path 10" class="shp2" d="M970.62 2546.67C970.62 2546.67 1100.02 2474.19 1039.63 2375.85C1039.63 2375.85 991.32 2315.46 939.56 2299.94C939.56 2299.94 967.17 2446.58 939.56 2450.04C911.95 2453.5 920.58 2284.4 920.58 2284.4C920.58 2284.4 784.28 2218.83 730.79 2224.02C730.79 2224.02 815.34 2367.23 787.73 2363.77C760.12 2360.31 665.23 2215.4 665.23 2215.4C665.23 2215.4 525.47 2189.5 503.05 2272.33C480.62 2355.15 516.85 2396.56 537.55 2401.73C558.26 2406.92 691.11 2405.19 687.66 2422.44C684.21 2439.69 594.49 2467.29 544.45 2451.77C544.45 2451.77 599.67 2588.06 672.13 2581.17C744.6 2574.27 767.03 2529.42 811.89 2525.96C856.74 2522.5 889.53 2534.58 867.1 2546.67C844.67 2558.73 768.75 2550.63 732.52 2581.42C696.29 2612.23 666.96 2631.21 734.25 2645C801.53 2658.81 922.31 2650.19 946.46 2598.42C970.62 2546.67 970.62 2546.67 970.62 2546.67Z" />
		<path id="Path 11" class="shp8" d="M1005.12 2672.6C968.89 2605.31 970.62 2546.67 970.62 2546.67C929.21 2415.52 566.88 2298.21 566.88 2298.21C1027.55 2484.54 946.46 2598.42 946.46 2598.42C958.88 2605.67 977.49 2640.19 990.41 2666.69C992.25 2671.19 995.16 2677.44 999.49 2685.92C1001.25 2689.73 1002.65 2692.87 1003.62 2695.06C1027.34 2754.4 1014.77 2856.9 1014.77 2856.9L1029.15 2860.75C1061 2757.46 1005.12 2672.6 1005.12 2672.6Z" />
		<path id="Path 12" class="shp2" d="M1176.49 2446.73C1176.49 2446.73 1005.91 2351.21 1085.51 2221.56C1085.51 2221.56 1149.19 2141.96 1217.42 2121.5C1217.42 2121.5 1181.03 2314.81 1217.42 2319.35C1253.81 2323.92 1242.44 2101.02 1242.44 2101.02C1242.44 2101.02 1422.11 2014.6 1492.62 2021.42C1492.62 2021.42 1381.18 2210.19 1417.57 2205.65C1453.96 2201.08 1579.04 2010.05 1579.04 2010.05C1579.04 2010.05 1763.27 1975.93 1792.84 2085.1C1822.4 2194.27 1774.64 2248.85 1747.35 2255.67C1720.06 2262.5 1544.93 2260.23 1549.48 2282.98C1554.03 2305.71 1672.29 2342.1 1738.25 2321.62C1738.25 2321.62 1665.47 2501.31 1569.95 2492.21C1474.43 2483.1 1444.86 2423.98 1385.72 2419.44C1326.59 2414.87 1283.38 2430.79 1312.95 2446.73C1342.51 2462.65 1442.59 2451.94 1490.35 2492.54C1538.11 2533.15 1576.77 2558.17 1488.07 2576.35C1399.37 2594.56 1240.17 2583.19 1208.33 2514.96C1176.49 2446.73 1176.49 2446.73 1176.49 2446.73Z" />
		<path id="Path 13" class="shp8" d="M1708.68 2119.21C1708.68 2119.21 1231.07 2273.88 1176.49 2446.73C1176.49 2446.73 1178.76 2524.04 1131 2612.75C1131 2612.75 1057.34 2724.6 1099.34 2860.75L1118.28 2855.67C1118.28 2855.67 1101.72 2720.56 1132.99 2642.33C1134.26 2639.46 1136.11 2635.31 1138.42 2630.27L1138.42 2630.27C1144.13 2619.1 1147.97 2610.87 1150.4 2604.94C1167.42 2570.02 1191.96 2524.5 1208.33 2514.96C1208.33 2514.96 1101.43 2364.85 1708.68 2119.21Z" />
		<path id="Path 14" class="shp6" d="M1170.74 3156C1355.27 3156 1504.87 3006.42 1504.87 2821.87L836.61 2821.87C836.61 3006.42 986.2 3156 1170.74 3156Z" />
		<path id="Path 15" class="shp9" d="M1252.96 3153.46C1239.37 3155.15 1225.51 3156 1211.44 3156C1026.91 3156 877.33 3006.4 877.33 2821.87L960.34 2821.87C960.34 2992.35 1088.01 3133 1252.96 3153.46Z" />
		<path id="Path 16" class="shp6" d="M1468.26 3133.02L873.22 3133.02C850.45 3133.02 831.99 3151.48 831.99 3174.25L1509.48 3174.25C1509.48 3151.48 1491.03 3133.02 1468.26 3133.02Z" />
		<path id="Path 17" class="shp5" d="M1507.34 2821.87L830.75 2821.87C827.91 2821.87 825.62 2824.17 825.62 2827C825.62 2829.83 827.91 2832.12 830.75 2832.12L1507.34 2832.12C1510.17 2832.12 1512.47 2829.83 1512.47 2827C1512.47 2824.17 1510.17 2821.87 1507.34 2821.87Z" />
		<path id="Path 18" class="shp10" d="M4085.69 1062.37C4076 1060.9 4046.81 1087.88 4046.81 1087.88C3984.5 1095.08 3893.4 1111.63 3860.6 1117.94C3837.33 1122.42 3774.81 1101.1 3713.73 1076.63C3641.08 1047.51 3570.5 1013.91 3570.5 1013.91C3530.19 1011.86 3484.42 1085.4 3566.17 1132.15C3578.65 1139.29 3625.52 1151.47 3679.52 1162.6C3679.52 1162.6 3679.52 1162.6 3679.52 1162.59C3754 1177.94 3842 1191.26 3871.94 1186.58C3906.73 1181.14 4005.21 1145.11 4063.79 1117.52L4063.79 1117.52C4063.79 1117.52 4063.85 1117.5 4063.94 1117.45C4064.17 1117.35 4064.37 1117.25 4064.58 1117.14C4068.1 1115.5 4082.44 1109.11 4092.02 1109.68C4103 1110.33 4127.44 1090.25 4128.19 1084.89C4128.92 1079.53 4095.37 1063.84 4085.69 1062.37Z" />
		<path id="Path 19" class="shp11" d="M4009.6 1988.8L3975.29 1995.77C3975.29 1995.77 3818.27 1819.35 3794.04 1745.11C3781.08 1705.44 3698.19 1688.3 3611.54 1665.9C3536.15 1646.41 3457.92 1622.92 3420.56 1577.09C3340.25 1478.62 3470.98 1357.63 3470.98 1357.63C3470.98 1357.63 3610 1440.25 3729.92 1525.6C3813.73 1585.25 3888.23 1646.22 3899.46 1681.27C3926.73 1766.49 3984.54 1928.49 4009.6 1988.8Z" />
		<path id="Path 20" class="shp12" d="M3963.67 2047L3982.98 2047C3989.44 2045.99 3994.21 2044.11 4000.83 2043.25C4010.92 2041.93 4015.54 2046.05 4016.46 2047C4016.58 2047.13 4016.65 2047.2 4016.65 2047.2L4098.62 2047.2C4100.69 2044.25 4098.71 2037.43 4096.77 2032.41C4095.48 2029 4092.62 2026.41 4089.1 2025.39C4080.42 2022.87 4063.27 2020.63 4047.56 2006.42C4038.75 1998.44 4004.94 1977.08 4004.94 1977.08L4004.75 1977.04C4004 1977.05 4000.48 1978.14 3985.08 1991.12C3977.15 1997.82 3963.58 1981.66 3963.58 1981.66C3963.58 1981.66 3961.04 1983.76 3959.15 1987.69C3957.62 1990.78 3956.5 1995.03 3957.37 2000.27C3958.6 2007.66 3954.67 2021.39 3951.5 2030.67C3949.6 2036.3 3948 2040.29 3948 2040.29C3948 2040.29 3947.06 2044.92 3963.67 2047Z" />
		<path id="Path 21" class="shp13" d="M3729.92 1525.6L3611.54 1665.9C3536.15 1646.41 3457.92 1622.92 3420.56 1577.09C3340.25 1478.62 3470.98 1357.63 3470.98 1357.63C3470.98 1357.63 3610 1440.25 3729.92 1525.6Z" />
		<path id="Path 22" class="shp11" d="M3622.35 1452.31C3622.35 1452.31 3612.81 1482.4 3597.27 1527.68C3577.62 1584.92 3548.37 1666.43 3516.65 1742.01C3509.67 1758.62 3502.56 1774.95 3495.42 1790.67C3469.02 1848.84 3442.02 1898.7 3418.23 1924.04C3375.48 1969.59 3271.58 2262.44 3271.58 2262.44L3245.69 2255.27C3245.69 2255.27 3209.58 2005.21 3337.46 1862.91C3338.83 1861.4 3339.9 1859.64 3340.04 1857.6C3340.06 1857.59 3340.06 1857.57 3340.06 1857.55C3341.77 1836.49 3347.85 1742.16 3361.1 1646.58C3364.35 1623.13 3368.04 1599.62 3372.17 1577.1C3372.44 1575.65 3372.71 1574.23 3372.98 1572.81C3392.42 1468.64 3411.04 1422.31 3435.08 1399.01L3611.9 1449.34L3622.35 1452.31Z" />
		<path id="Path 23" class="shp12" d="M3242.79 2298.42L3262.1 2298.42C3268.56 2297.4 3273.33 2295.52 3279.96 2294.65C3290.04 2293.33 3294.67 2297.46 3295.58 2298.42C3295.71 2298.54 3295.77 2298.6 3295.77 2298.6L3377.75 2298.6C3379.81 2295.65 3377.83 2288.83 3375.9 2283.81C3374.58 2280.4 3371.75 2277.81 3368.23 2276.79C3359.52 2274.27 3342.4 2272.04 3326.69 2257.83C3317.85 2249.85 3284.04 2228.48 3284.04 2228.48L3283.87 2228.44C3283.12 2228.46 3279.6 2229.54 3264.21 2242.52C3256.27 2249.23 3242.71 2233.06 3242.71 2233.06C3242.71 2233.06 3240.17 2235.17 3238.27 2239.08C3236.75 2242.19 3235.62 2246.44 3236.5 2251.69C3237.73 2259.06 3233.79 2272.79 3230.65 2282.08C3228.73 2287.71 3227.1 2291.69 3227.1 2291.69C3227.1 2291.69 3226.19 2296.33 3242.79 2298.42Z" />
		<path id="Path 24" class="shp14" d="M3280.71 1112.22C3280.71 1112.22 3251.12 1184.59 3217.02 1255.03C3188.33 1314.25 3156.46 1372.1 3136.25 1384.45C3107.75 1401.86 3029.25 1450.97 2978.31 1487.6C2978.31 1487.6 2938.58 1487.3 2932.4 1494.9C2926.23 1502.51 2911.98 1536.7 2916.15 1540.16C2920.31 1543.62 2951.9 1542.01 2959.56 1534.14C2966.27 1527.28 2981.17 1522.35 2984.87 1521.2C2985.1 1521.13 2985.33 1521.06 2985.56 1520.99C2985.67 1520.96 2985.73 1520.94 2985.73 1520.94L2985.73 1520.94C3047.6 1501.9 3144.69 1462.24 3174.06 1442.84C3199.37 1426.14 3255.46 1357.05 3300.19 1295.56C3300.21 1295.56 3300.21 1295.56 3300.21 1295.56C3332.65 1250.99 3359.1 1210.41 3363.52 1196.73C3392.5 1107.13 3309.12 1083.57 3280.71 1112.22Z" />
		<path id="Path 25" class="shp15" d="M3435.42 828.45C3431.92 823.33 3428.35 818.81 3424.83 814.75C3429.21 814.85 3433.94 814.42 3437.88 812.79C3448.27 808.5 3453 775.54 3451.44 765.76C3449.87 755.99 3435.46 727.71 3417.67 724.89C3399.87 722.07 3381.5 741.82 3381.5 741.82C3384.79 727.56 3414.87 719.34 3414.87 719.34C3352.9 730.77 3356.06 772.11 3356.48 775.93C3299.75 755.72 3266.44 862.57 3266.44 862.57L3413.42 949.18C3413.42 949.18 3413.79 925.58 3427.81 927.1C3449.69 929.47 3467.9 875.77 3435.42 828.45Z" />
		<path id="Path 26" class="shp14" d="M3444.79 1052.65C3411.06 1068.54 3366.31 1045.65 3366.54 1045.41C3369.44 1042.51 3368.42 1033.86 3365.77 1022.54C3363.13 1010.73 3356.85 994.59 3345.29 975.32C3342.9 971.22 3340.48 967.13 3337.58 962.79L3341.44 961.35L3406.96 935.1C3406.96 935.1 3417.56 954.12 3428.65 971.47C3438.04 985.92 3447.92 998.93 3452.25 998.45C3452.5 998.21 3495.85 1028.07 3444.79 1052.65Z" />
		<path id="Path 27" class="shp10" d="M3406.96 941.6C3405.27 964.96 3397.33 1007.12 3365.77 1022.54C3363.13 1010.73 3356.85 994.59 3345.29 975.32L3406.96 941.6Z" />
		<path id="Path 28" class="shp14" d="M3341.46 1001.91C3341.46 1001.91 3426.77 968.29 3405 915.49C3383.25 862.7 3379.6 822.8 3324.23 842.03C3268.85 861.26 3266.62 885.75 3269.6 905.14C3272.58 924.52 3318.71 1009.3 3341.46 1001.91Z" />
		<path id="Path 29" class="shp15" d="M3373.27 903.45C3412.67 897.89 3424.17 881.97 3424.17 881.97C3424.17 881.97 3387.9 871.57 3366.58 836.04C3366.58 836.04 3322.31 821.11 3289.5 846.07C3287.5 848.67 3286.06 851.72 3285.35 855.32C3277.83 852.86 3266.52 853.5 3260 874.75C3250.21 906.67 3285.06 941.53 3285.06 941.53C3293.52 939.14 3283.98 910.69 3282.65 895.51C3281.67 884.33 3287.71 870.03 3290.96 863.25C3295.12 868.66 3336.69 920.88 3387.42 922.96C3387.42 922.96 3360.6 913.67 3336.21 895.47C3348.35 901.44 3361.25 905.15 3373.27 903.45Z" />
		<path id="Path 30" class="shp4" d="M3607.19 1161.43C3606.46 1158.88 3605.69 1156.24 3604.87 1153.52C3617.54 1129.31 3623.77 1107.49 3626.4 1089.02C3632.19 1049.99 3622.31 1025.9 3622.31 1025.9C3622.31 1025.9 3563.15 994.53 3537.02 990.54C3536.9 990.49 3536.79 990.45 3536.69 990.44C3536.37 990.39 3536.02 990.36 3535.65 990.34C3509.27 986.7 3452.17 998.36 3452.17 998.36C3452.17 998.36 3463.19 1027.68 3432.12 1047.22C3401.04 1066.77 3367.85 1042.22 3367.85 1042.22C3366.85 1042.89 3365.79 1043.63 3364.71 1044.41L3364.69 1044.4C3364.69 1044.4 3282.94 1098.35 3275.6 1110.67C3268.25 1123.01 3236.81 1184.04 3236.81 1184.04C3236.81 1184.04 3246.79 1235.28 3357.23 1239.56C3366.31 1261.58 3373.27 1283.06 3375.52 1300.98C3384.29 1370.54 3374.1 1425.4 3384.33 1466C3394.56 1506.6 3578.83 1483.45 3612.21 1475.64C3645.58 1467.83 3638.06 1432.19 3640.65 1397.58C3643.87 1354.08 3618.06 1199.8 3607.19 1161.43Z" />
		<path id="Path 31" class="shp16" d="M3626.4 1089.02C3623.75 1107.56 3617.5 1129.49 3604.73 1153.81C3601.83 1141.05 3590.04 1094.32 3571 1073.12C3571 1073.12 3603.04 1076.01 3626.4 1089.02Z" />
		<path id="Path 32" class="shp10" d="M2876.08 1544.87C2876.08 1544.87 2910.42 1503.27 2917.81 1498.35C2925.21 1493.43 2957.62 1484.81 2959.48 1486.55C2961.33 1488.29 2961.42 1490.8 2957.4 1494.35C2953.4 1497.89 2938.04 1506.84 2940.23 1507.85C2942.44 1508.86 2988.69 1485.83 2995.37 1493.57C3002.04 1501.32 2991.58 1533.3 2973.75 1548.63C2955.94 1563.96 2902.71 1570.5 2899.37 1572.64C2870.98 1590.79 2876.08 1544.87 2876.08 1544.87Z" />
		<path id="Path 33" class="shp14" d="M2271.65 1448.81C2271.65 1448.81 2320.98 1507.32 2383.77 1482.84C2383.77 1482.84 2397.29 1450.16 2397.48 1426.07C2397.5 1423.11 2397.54 1420.24 2397.58 1417.5C2397.92 1390.37 2398.83 1375.15 2398.83 1375.15C2398.83 1375.15 2398.81 1375.15 2398.77 1375.14C2395.92 1373.95 2302.75 1335.71 2302.83 1338.88C2304.44 1412.25 2271.65 1448.81 2271.65 1448.81Z" />
		<path id="Path 34" class="shp10" d="M2312.19 1356.37C2321.17 1373.03 2352 1405.6 2397.58 1417.5C2397.92 1390.37 2398.83 1375.15 2398.83 1375.15C2398.83 1375.15 2398.81 1375.15 2398.77 1375.14C2396.19 1374.45 2309.52 1351.47 2312.19 1356.37Z" />
		<path id="Path 35" class="shp14" d="M2418.35 1372.34C2418.35 1372.34 2313.58 1396.97 2299.25 1331.49C2284.92 1266.01 2261.73 1225.09 2328.02 1206.6C2394.31 1188.1 2412.81 1210.23 2422.92 1230.92C2433.02 1251.62 2445.23 1364.24 2418.35 1372.34Z" />
		<path id="Path 36" class="shp17" d="M2302.83 1349.33C2301.4 1350.24 2278.85 1357.17 2236.17 1272.12C2229.46 1258.77 2224.9 1229.89 2240.52 1204.37C2256.15 1178.85 2311.54 1158.79 2357.56 1150.06C2403.58 1141.33 2414.62 1167.22 2425.46 1193.25C2436.83 1220.57 2469.69 1243.06 2469.69 1243.06C2430.02 1265.23 2382.21 1233.52 2365.65 1238.74C2349.08 1243.95 2343.25 1270.05 2342 1278.41C2340.75 1286.78 2338.85 1293.73 2318.02 1286.26C2297.21 1278.79 2308.6 1315.77 2311.94 1322.84C2311.94 1322.84 2314.77 1341.68 2302.83 1349.33Z" />
		<path id="Path 37" class="shp15" d="M2032.95 2984.31L1969.52 2984.31C1956.22 2984.31 1941.44 2970.81 1937.74 2946.12C1934.04 2921.4 1906.71 2907.92 1900.79 2887.69C1894.87 2867.48 1925.19 2839 1925.19 2839L1930.25 2832.4L1935.52 2825.52L1985.77 2837.5C1985.77 2837.5 1987.01 2849.62 1987.79 2865.08C1988.33 2876.23 1988.62 2889.12 1987.99 2900.42C1986.51 2927.4 1995.45 2956.42 2019.08 2961.67C2042.74 2966.92 2032.95 2984.31 2032.95 2984.31ZM2474.56 2984.92L2306.42 2984.92C2304.81 2984.6 2303.58 2984.25 2302.85 2983.85C2291.62 2978.06 2295.15 2933.81 2296.48 2920.15C2296.75 2917.6 2296.94 2916.12 2296.94 2916.12C2296.94 2916.12 2356.06 2867.44 2364.19 2904.73C2364.46 2905.87 2364.75 2907.02 2365.06 2908.15L2365.06 2908.17C2375.33 2943.04 2421.21 2958.9 2447.73 2963.31C2467.98 2966.71 2473.23 2978.85 2474.56 2984.92Z" />
		<path id="Path 38" class="shp18" d="M2440.69 2012.53C2440.69 2012.53 2431.71 2124.56 2421.15 2259.23C2406.79 2442.19 2389.54 2666.92 2387.85 2709.48C2384.9 2783.4 2373.06 2901.65 2373.06 2901.65C2373.06 2901.65 2344.98 2929.75 2288.79 2917.9C2288.79 2917.9 2238.73 2749.1 2224.44 2570.5C2224.21 2567.56 2223.98 2564.62 2223.77 2561.67C2210.46 2379.85 2189.77 1997 2189.77 1997L2440.69 2012.53Z" />
		<path id="Path 39" class="shp19" d="M2440.69 2012.53C2440.69 2012.53 2431.71 2124.56 2421.15 2259.23L2224.44 2570.5C2224.21 2567.56 2223.98 2564.62 2223.77 2561.67C2210.46 2379.85 2189.77 1997 2189.77 1997L2440.69 2012.53Z" />
		<path id="Path 40" class="shp18" d="M2399.67 2025.83C2399.67 2025.83 2237.81 2431.58 2131.37 2622.27C2024.96 2812.96 1991.7 2866.17 1991.7 2866.17C1991.7 2866.17 1930.72 2841.79 1925.18 2825.15C1925.18 2825.15 1965.88 2457.02 2037.15 2367.29C2077.42 2316.58 2124.73 2164.42 2126.96 2111.19C2129.17 2057.98 2141.35 1952.66 2141.35 1952.66L2399.67 2025.83Z" />
		<path id="Path 41" class="shp10" d="M2029.08 1958.26C2029.08 1958.26 2024.89 2008.93 2021.82 2016.71C2018.74 2024.49 1998.28 2048.61 1995.91 2048.27C1993.54 2047.92 1992.13 2046.02 1993.32 2041.11C1994.52 2036.2 2001.58 2021.03 1999.35 2021.42C1997.11 2021.82 1973.69 2064.54 1964.36 2062.13C1955.03 2059.73 1945.91 2029.35 1951.46 2007.89C1957.01 1986.44 1994.69 1952.74 1996.12 1949.29C2008.32 1919.97 2029.08 1958.26 2029.08 1958.26Z" />
		<path id="Path 42" class="shp13" d="M2011.71 1971.11C2029.63 1976.86 2032.5 1975.56 2032.5 1975.56C2032.5 1975.56 2119.69 1816.8 2128.52 1802.27C2137.35 1787.74 2313.67 1624.24 2313.67 1624.24L2268.35 1455.29C2268.35 1455.29 2067.83 1714.96 2046.17 1752.22C2010.39 1813.8 1989.42 1956.8 1989.42 1956.8C1989.42 1956.8 1997.64 1966.59 2011.71 1971.11Z" />
		<path id="Path 43" class="shp20" d="M2474.85 1690.57C2474.23 1725.27 2472.21 1764.28 2469.48 1803.89C2469.31 1806.24 2469.15 1808.59 2468.98 1810.94C2467.25 1835.48 2465.35 1860.08 2463.19 1884.07C2462.33 1893.69 2461.4 1903.19 2460.44 1912.53L2460.29 1913.79C2460.23 1917.29 2459.79 1921.08 2459.42 1924.54C2450.56 2014.38 2441.29 2085.37 2439.58 2086.46C2437.52 2087.83 2435.21 2088.52 2432.69 2088.21C2409.12 2085.25 2338.81 2090.6 2281.27 2078.08C2232.71 2067.83 2190.87 2048.41 2146.56 2022.22C2140.69 2018.75 2127.27 2009.54 2128.37 2002.66C2129.44 1995.09 2131.42 1984.16 2133.94 1970.42C2142.67 1922.63 2157.73 1840.42 2162.87 1744.21C2163.87 1726.29 2165.33 1708.59 2167.23 1691.19C2172.17 1645.86 2180.08 1602.8 2190.71 1564.55C2210.44 1493.5 2239.44 1439.09 2275.81 1417.8C2280.56 1415.14 2306.15 1431.41 2329.62 1446.48C2351.33 1460.39 2374.17 1464.24 2396.37 1462.3L2415.92 1483.92C2439.6 1511.44 2464.81 1548.08 2471.69 1600.16C2472.21 1604 2472.65 1608.09 2473.02 1612.44C2474.92 1633.65 2475.4 1660.51 2474.85 1690.57Z" />
		<path id="Path 44" class="shp13" d="M2474.85 1690.57C2474.23 1725.27 2472.21 1764.28 2469.48 1803.89C2469.31 1806.24 2469.15 1808.59 2468.98 1810.94C2334.4 1726.7 2313.67 1572.54 2313.67 1572.54C2379.87 1575.45 2432.48 1590.67 2473.02 1612.44C2474.92 1633.65 2475.4 1660.51 2474.85 1690.57Z" />
		<path id="Path 45" class="shp20" d="M2896.52 1549.04C2889.58 1530.27 2878.79 1531.49 2878.79 1531.49C2878.79 1531.49 2678.67 1581.36 2660.71 1583.5C2642.77 1585.64 2445.23 1506.37 2445.23 1506.37C2445.23 1506.37 2367.48 1471.47 2331.06 1503.33C2299.42 1531.02 2297.98 1566.09 2305.37 1595.55C2314.21 1630.65 2343.9 1656.57 2379.81 1661.15C2460.4 1671.41 2621.19 1690.73 2654.87 1686.04C2729.87 1675.6 2899.83 1577.5 2899.83 1577.5C2899.83 1577.5 2901.96 1563.78 2896.52 1549.04Z" />
		<path id="Path 46" class="shp15" d="M4869.71 1915.82C4869.71 1915.82 4897.5 1941.58 4892.08 1959.89C4886.65 1978.2 4861.56 1990.4 4858.17 2012.78C4854.79 2035.16 4841.23 2047.36 4829.02 2047.36C4816.81 2047.36 4770.83 2047.36 4770.83 2047.36C4770.83 2047.36 4761.83 2031.62 4783.54 2026.87C4805.25 2022.12 4813.42 1995.83 4812.06 1971.42C4810.71 1947.01 4814.1 1914.46 4814.1 1914.46L4860.21 1903.61L4869.71 1915.82ZM4523.21 2044.32C4520.4 2045.73 4510.48 2046.71 4496.87 2047.36L4365.27 2047.36C4365.73 2043.45 4368.79 2029.5 4390.31 2026.02C4414.62 2022.07 4456.73 2007.94 4466.1 1976.85C4466.44 1975.86 4466.69 1974.83 4466.94 1973.8C4474.37 1940.58 4528.62 1983.97 4528.62 1983.97C4528.62 1983.97 4528.79 1985.3 4529.02 1987.56C4530.29 1999.78 4533.5 2039.18 4523.21 2044.32Z" />
		<path id="Path 47" class="shp21" d="M4396.75 1155.62C4396.75 1155.62 4404.98 1258.41 4414.67 1381.97C4427.83 1549.82 4443.67 1755.99 4445.23 1795.05C4447.94 1862.87 4458.79 1971.36 4458.79 1971.36C4458.79 1971.36 4484.54 1997.13 4536.1 1986.27C4536.1 1986.27 4582.02 1831.4 4595.15 1667.54C4595.35 1664.86 4595.56 1662.15 4595.75 1659.45C4607.96 1492.64 4626.94 1141.39 4626.94 1141.39L4396.75 1155.62Z" />
		<path id="Path 48" class="shp15" d="M4396.75 1155.62C4396.75 1155.62 4404.98 1258.41 4414.67 1381.97L4595.15 1667.54C4595.35 1664.86 4595.56 1662.15 4595.75 1659.45C4607.96 1492.64 4626.94 1141.39 4626.94 1141.39L4396.75 1155.62Z" />
		<path id="Path 49" class="shp21" d="M4434.37 1167.83C4434.37 1167.83 4582.87 1540.1 4680.52 1715.04C4778.17 1889.99 4808.67 1938.81 4808.67 1938.81C4808.67 1938.81 4864.62 1916.44 4869.71 1901.18C4869.71 1901.18 4832.37 1563.44 4766.98 1481.11C4730.02 1434.58 4686.63 1294.97 4684.58 1246.15C4682.56 1197.33 4671.35 1100.7 4671.35 1100.7L4434.37 1167.83Z" />
		<path id="Path 50" class="shp14" d="M3976.33 965.93C3976.33 965.93 3936.06 956.71 3929.27 957.18C3922.5 957.65 3898.79 967.56 3898.48 969.49C3898.15 971.41 3899.27 972.97 3903.37 973.25C3907.48 973.53 3920.96 971.79 3920.1 973.43C3919.25 975.06 3880.4 982.7 3879.98 990.52C3879.54 998.33 3900.83 1012.87 3918.81 1013.84C3936.79 1014.81 3972.15 993.92 3975.19 993.66C4000.9 991.41 3976.33 965.93 3976.33 965.93Z" />
		<path id="Path 51" class="shp19" d="M3959.1 976.16C3953.31 957.76 3954.67 954.82 3954.67 954.82C3954.67 954.82 4117.96 866.54 4132.9 857.58C4147.85 848.63 4316.58 669.06 4316.58 669.06L4489.42 716.64C4489.42 716.64 4221.96 920.37 4183.62 942.31C4120.29 978.57 3973.6 999.09 3973.6 999.09C3973.6 999.09 3963.62 990.61 3959.1 976.16Z" />
		<path id="Path 52" class="shp14" d="M4368.96 581.77C4368.96 581.77 4308.37 688.38 4249.15 702.29C4249.15 702.29 4251.6 666.49 4266.02 641.99C4260.12 635.02 4254.94 628.62 4250.44 622.9C4235.54 603.8 4228.46 592.1 4228.46 592.1L4248.54 538.06L4262.19 501.4C4268.75 513.3 4275.96 523.44 4283.5 532.11C4322.31 576.74 4368.96 581.77 4368.96 581.77Z" />
		<path id="Path 53" class="shp10" d="M4283.5 532.11C4283.5 532.11 4290.73 585.53 4250.44 622.9C4235.54 603.8 4228.46 592.1 4228.46 592.1L4248.54 538.06C4270.1 531.5 4283.5 532.11 4283.5 532.11Z" />
		<path id="Path 54" class="shp14" d="M4212.48 599.98C4212.48 599.98 4303.02 564.69 4280.17 508.65C4257.31 452.61 4253.62 410.31 4194.85 430.48C4136.08 450.64 4133.65 476.57 4136.73 497.13C4139.79 517.69 4188.35 607.71 4212.48 599.98Z" />
		<path id="Path 55" class="shp18" d="M4680.15 1128.84C4643.62 1181.34 4370.58 1251.5 4373.81 1215.15C4375.06 1201.25 4376.73 1176.72 4373.77 1143.47C4373.08 1135.68 4372.13 1127.43 4370.87 1118.7C4363.94 1070.95 4347.46 1009.55 4310.71 938.47C4307.96 933.14 4305.08 927.78 4302.1 922.34C4286.98 894.82 4274.08 865.73 4264.25 837.29C4245.33 782.62 4237.71 730.31 4247.25 696.12C4247.29 695.95 4247.35 695.8 4247.4 695.64C4304.48 669.24 4326.6 566.89 4326.6 566.89C4326.6 566.89 4521.31 601.85 4630.4 861.4C4630.4 861.4 4711.92 1083.14 4680.15 1128.84Z" />
		<path id="Path 56" class="shp19" d="M4373.77 1143.47C4373.08 1135.68 4372.13 1127.43 4370.87 1118.7C4363.94 1070.95 4347.46 1009.55 4310.71 938.47C4317.02 900.22 4325.73 868.41 4335.29 854.1C4374.12 795.89 4396.75 786.8 4396.75 786.8C4396.75 786.8 4454.98 1032.41 4373.77 1143.47Z" />
		<path id="Path 57" class="shp14" d="M4066.83 1085.03C4066.83 1085.03 4012.96 1087.86 4004.6 1090.87C3996.27 1093.88 3970.04 1114.81 3970.33 1117.33C3970.62 1119.85 3972.58 1121.42 3977.83 1120.3C3983.06 1119.19 3999.4 1112.19 3998.9 1114.55C3998.42 1116.9 3952.35 1140.37 3954.6 1150.34C3956.87 1160.31 3988.79 1170.95 4011.73 1165.75C4034.65 1160.55 4071.58 1121.68 4075.29 1120.26C4106.77 1108.26 4066.83 1085.03 4066.83 1085.03Z" />
		<path id="Path 58" class="shp18" d="M4056.67 1105.46C4045.87 1088.03 4053.67 1080.07 4053.67 1080.07C4053.67 1080.07 4220.06 949.79 4233.1 936.62C4246.15 923.46 4306.56 713.88 4306.56 713.88C4306.56 713.88 4327.35 629.06 4376.06 619.7C4418.37 611.58 4447.63 632.51 4466.77 657.06C4489.56 686.31 4491.81 726.65 4472.87 758.54C4430.4 830.14 4344.69 972.25 4319.67 996.52C4263.96 1050.56 4077.58 1126.07 4077.58 1126.07C4077.58 1126.07 4065.15 1119.15 4056.67 1105.46Z" />
		<path id="Path 59" class="shp11" d="M4293.17 404.55C4293.79 403.3 4295.65 401.96 4300.12 400.58C4300.12 400.58 4295.92 399.17 4291.02 400.25C4288.48 394.04 4282.29 383.48 4270.71 383.4C4270.71 383.4 4277.35 385.13 4279.81 391.78C4263.94 381.72 4234.5 378.8 4161.02 403.27C4064.17 435.53 4112.56 491.74 4127.23 496.25C4141.92 500.76 4168.94 471.83 4193.23 467.88C4217.54 463.94 4230.69 497.79 4239.94 500.6C4249.21 503.4 4243.94 495.7 4253.65 487.99C4263.35 480.27 4268.92 498.42 4268.71 511.17C4268.5 523.91 4287.42 536 4287.42 536C4287.42 536 4287.42 536 4298.52 515.64C4309.6 495.29 4306.58 421.41 4295.98 408.11C4295.06 406.94 4294.12 405.75 4293.17 404.55Z" />
		<path id="Path 60" class="shp22" d="M5883.77 3193.81L415.79 3193.81C411.82 3193.81 408.58 3190.58 408.58 3186.6L408.58 3181.46C408.58 3177.5 411.82 3174.25 415.79 3174.25L5883.77 3174.25C5887.73 3174.25 5890.98 3177.5 5890.98 3181.46L5890.98 3186.6C5890.98 3190.58 5887.73 3193.81 5883.77 3193.81Z" />
		<path id="Path 61" class="shp23" d="M2762.42 2982.17L2762.42 3091.77L2503 2982.17L2762.42 2982.17Z" />
		<path id="Path 62" class="shp3" d="M4124.65 2047.36L4124.65 3174.25L4982.6 3174.25L4982.6 2047.36L4124.65 2047.36Z" />
		<path id="Path 63" class="shp4" d="M3860.08 2047.36L3860.08 3174.25L4718.06 3174.25L4718.06 2047.36L3860.08 2047.36Z" />
		<path id="Path 64" class="shp23" d="M4982.6 2047.36L4982.6 2215.87L4718.06 2047.36L4982.6 2047.36Z" />
	</g>
</svg>
